<?xml version="1.0" encoding="UTF-8"?>
<!DOCTYPE svg PUBLIC "-//W3C//DTD SVG 1.1//EN" "http://www.w3.org/Graphics/SVG/1.1/DTD/svg11.dtd">
<svg xmlns="http://www.w3.org/2000/svg" version="1.1" width="574px" height="364px" style="shape-rendering:geometricPrecision; text-rendering:geometricPrecision; image-rendering:optimizeQuality; fill-rule:evenodd; clip-rule:evenodd" xmlns:xlink="http://www.w3.org/1999/xlink">
<g><path style="opacity:1" fill="#6b90c8" d="M 57.5,-0.5 C 65.8333,-0.5 74.1667,-0.5 82.5,-0.5C 132.2,9.17463 178.866,27.008 222.5,53C 230.937,58.2174 238.604,64.384 245.5,71.5C 260.022,67.7539 273.689,69.7539 286.5,77.5C 299.311,69.7539 312.978,67.7539 327.5,71.5C 335.812,63.0238 345.145,55.8571 355.5,50C 397.822,25.7297 442.822,8.89642 490.5,-0.5C 498.833,-0.5 507.167,-0.5 515.5,-0.5C 530.868,1.34825 544.868,6.84825 557.5,16C 565.815,23.1453 571.148,31.9786 573.5,42.5C 573.5,47.1667 573.5,51.8333 573.5,56.5C 570.325,68.3566 566.325,80.0232 561.5,91.5C 568.276,128.706 567.443,166.372 559,204.5C 551.128,233.711 531.962,247.044 501.5,244.5C 490.463,244.164 479.463,243.33 468.5,242C 451.997,239.498 435.664,236.498 419.5,233C 436.55,268.817 449.217,306.15 457.5,345C 457.063,350.603 454.063,353.77 448.5,354.5C 429.574,347.969 410.574,341.636 391.5,335.5C 382.728,338.717 374.728,343.217 367.5,349C 358.438,353.862 349.438,358.695 340.5,363.5C 339.167,363.5 337.833,363.5 336.5,363.5C 333.755,362.832 331.255,361.499 329,359.5C 326.739,355.05 325.072,350.383 324,345.5C 310.875,289.335 298.542,233.002 287,176.5C 274.73,232.842 262.063,289.176 249,345.5C 247.928,350.383 246.261,355.05 244,359.5C 242.188,360.977 240.355,362.31 238.5,363.5C 238.167,363.5 237.833,363.5 237.5,363.5C 237.167,362.167 236.833,362.167 236.5,363.5C 235.167,363.5 233.833,363.5 232.5,363.5C 225.386,359.441 218.052,355.608 210.5,352C 201.772,344.966 192.105,339.466 181.5,335.5C 162.426,341.636 143.426,347.969 124.5,354.5C 118.937,353.77 115.937,350.603 115.5,345C 120.177,321.97 126.677,299.47 135,277.5C 141.038,262.594 147.204,247.761 153.5,233C 137.336,236.498 121.003,239.498 104.5,242C 85.1428,245.113 65.8095,245.113 46.5,242C 29.506,236.565 19.006,225.065 15,207.5C 6.33839,169.089 5.17172,130.422 11.5,91.5C 6.68031,80.039 2.68031,68.3724 -0.5,56.5C -0.5,51.8333 -0.5,47.1667 -0.5,42.5C 4.74138,23.7539 16.7414,11.2539 35.5,5C 42.8845,2.82944 50.2179,0.996105 57.5,-0.5 Z"/></g>
<g><path style="opacity:1" fill="#88aee0" d="M 505.5,13.5 C 507.167,14.8333 508.833,16.1667 510.5,17.5C 507.95,17.8844 506.617,19.3844 506.5,22C 508.099,24.7434 509.766,27.5767 511.5,30.5C 512.812,37.41 510.479,42.91 504.5,47C 481.408,62.2548 456.074,71.5882 428.5,75C 419.511,76.0175 410.511,76.8508 401.5,77.5C 405.254,72.2282 405.254,67.0615 401.5,62C 394.786,59.6014 389.953,61.768 387,68.5C 382.124,63.1562 376.291,61.6562 369.5,64C 365.541,69.0676 365.874,73.9009 370.5,78.5C 358.464,78.7765 346.464,78.2765 334.5,77C 367.002,58.7455 400.669,43.2455 435.5,30.5C 440.602,34.4255 445.602,38.5922 450.5,43C 451.833,43.6667 453.167,43.6667 454.5,43C 459.842,36.6541 464.175,29.6541 467.5,22C 467.164,20.9701 466.497,20.4701 465.5,20.5C 478.361,16.2442 491.694,13.9109 505.5,13.5 Z"/></g>
<g><path style="opacity:1" fill="#a7c7e6" d="M 67.5,13.5 C 64.9088,15.961 61.9088,17.6276 58.5,18.5C 48.7712,22.6113 45.2712,29.9446 48,40.5C 50.1289,48.575 54.6289,55.075 61.5,60C 78.2607,69.7159 95.9274,77.2159 114.5,82.5C 116.732,87.7358 120.399,91.7358 125.5,94.5C 129.743,92.9187 133.076,90.2521 135.5,86.5C 159.606,91.031 183.939,92.6977 208.5,91.5C 205.972,92.1657 203.306,92.8324 200.5,93.5C 202.97,97.309 206.303,99.9757 210.5,101.5C 214.582,98.9251 218.249,95.7585 221.5,92C 219.866,91.5065 218.199,91.3398 216.5,91.5C 220.311,90.3547 224.311,90.1881 228.5,91C 225.204,97.5552 222.704,104.388 221,111.5C 217.091,109.319 212.924,107.819 208.5,107C 192.645,104.447 176.978,105.114 161.5,109C 154.923,113.583 154.923,118.249 161.5,123C 168.678,125.923 176.011,126.756 183.5,125.5C 187.802,126.979 192.135,128.479 196.5,130C 183.368,131.032 171.035,134.699 159.5,141C 154.125,149.338 156.125,154.838 165.5,157.5C 169.327,163.15 174.66,164.984 181.5,163C 198.101,159.701 212.434,152.201 224.5,140.5C 228.77,147.103 233.77,153.103 239.5,158.5C 235.909,160.782 234.576,164.116 235.5,168.5C 234.778,168.082 234.278,167.416 234,166.5C 219.674,173.52 205.174,179.853 190.5,185.5C 190.167,185.5 189.833,185.5 189.5,185.5C 184.71,177.954 179.21,177.621 173,184.5C 167.514,178.92 162.514,179.253 158,185.5C 157.404,188.686 157.904,191.686 159.5,194.5C 124.586,205.487 88.9191,208.654 52.5,204C 44.1909,202.396 36.1909,199.896 28.5,196.5C 26.4364,184.928 25.103,173.261 24.5,161.5C 32.4902,156.355 37.4902,149.189 39.5,140C 38.2502,133.099 34.2502,130.766 27.5,133C 26.4734,133.513 25.4734,134.013 24.5,134.5C 25.3372,118.48 26.1705,102.48 27,86.5C 22.8121,77.2014 18.9788,67.868 15.5,58.5C 27.0075,54.4991 33.5075,46.4991 35,34.5C 34.4169,32.9984 33.5836,31.6651 32.5,30.5C 29.1701,29.2609 25.8368,29.2609 22.5,30.5C 31.7681,21.0341 43.1014,15.5341 56.5,14C 60.1516,13.5014 63.8183,13.3347 67.5,13.5 Z"/></g>
<g><path style="opacity:1" fill="#88aee0" d="M 67.5,13.5 C 81.36,13.5416 94.6933,15.875 107.5,20.5C 105.775,20.8425 105.275,21.8425 106,23.5C 109.294,30.594 113.46,37.094 118.5,43C 119.833,43.6667 121.167,43.6667 122.5,43C 126.88,38.952 131.546,35.2853 136.5,32C 137.598,31.2303 137.598,30.397 136.5,29.5C 153.229,36.0263 169.896,42.8597 186.5,50C 203.865,59.0151 221.198,68.0151 238.5,77C 226.53,78.2055 214.53,78.7055 202.5,78.5C 207.126,73.9009 207.459,69.0676 203.5,64C 196.626,61.4017 190.793,62.9017 186,68.5C 182.781,62.3 177.947,60.1334 171.5,62C 167.625,67.095 167.625,72.2617 171.5,77.5C 140.493,76.0506 110.827,69.0506 82.5,56.5C 74.6026,52.1013 67.7692,46.4346 62,39.5C 60.5432,36.634 60.2099,33.634 61,30.5C 62.7277,27.5305 64.561,24.6972 66.5,22C 66.4148,20.8926 66.0814,19.8926 65.5,19C 63.1902,18.5034 60.8568,18.3367 58.5,18.5C 61.9088,17.6276 64.9088,15.961 67.5,13.5 Z"/></g>
<g><path style="opacity:1" fill="#a7c7e6" d="M 505.5,13.5 C 523.082,12.8084 538.082,18.4751 550.5,30.5C 543.799,27.6726 539.465,29.6726 537.5,36.5C 540.387,47.3819 547.053,54.7152 557.5,58.5C 554.507,68.1553 550.674,77.4886 546,86.5C 546.354,102.52 547.187,118.52 548.5,134.5C 540.428,130.102 535.428,132.269 533.5,141C 535.96,149.636 540.96,156.469 548.5,161.5C 547.501,171.492 546.501,181.492 545.5,191.5C 544.837,193.042 544.17,194.709 543.5,196.5C 526.358,203.914 508.358,207.248 489.5,206.5C 463.57,206.178 438.237,202.178 413.5,194.5C 417.447,185.084 414.447,180.584 404.5,181C 402.714,181.785 401.214,182.951 400,184.5C 393.79,177.621 388.29,177.954 383.5,185.5C 383.167,185.5 382.833,185.5 382.5,185.5C 367.774,180.561 353.441,174.561 339.5,167.5C 338.817,167.863 338.15,168.196 337.5,168.5C 338.424,164.116 337.091,160.782 333.5,158.5C 339.23,153.103 344.23,147.103 348.5,140.5C 362.95,154.897 380.283,162.397 400.5,163C 402.727,162.059 404.727,160.892 406.5,159.5C 408.428,157.526 410.761,156.026 413.5,155C 417.41,150.406 417.41,145.739 413.5,141C 401.628,134.69 388.961,131.023 375.5,130C 380.442,128.204 385.442,126.704 390.5,125.5C 398.488,127.04 406.154,125.707 413.5,121.5C 416.476,118.807 417.143,115.64 415.5,112C 413.33,110.414 410.996,109.08 408.5,108C 392.527,104.846 376.527,104.846 360.5,108C 357.376,108.479 354.543,109.646 352,111.5C 350.285,104.354 347.785,97.5208 344.5,91C 348.358,90.1901 352.024,90.3567 355.5,91.5C 354.127,91.3433 352.793,91.51 351.5,92C 354.794,95.9738 358.627,99.1405 363,101.5C 367.634,99.3661 371.134,96.0328 373.5,91.5C 395.007,91.8713 416.341,90.2046 437.5,86.5C 439.95,90.2849 443.284,92.9516 447.5,94.5C 452.57,91.7641 456.237,87.7641 458.5,82.5C 477.502,77.1705 495.502,69.3371 512.5,59C 521.754,51.9952 526.254,42.8285 526,31.5C 523.828,23.494 518.662,18.8273 510.5,17.5C 508.833,16.1667 507.167,14.8333 505.5,13.5 Z"/></g>
<g><path style="opacity:1" fill="#c6dff1" d="M 107.5,20.5 C 117.107,23.7023 126.773,26.7023 136.5,29.5C 137.598,30.397 137.598,31.2303 136.5,32C 131.546,35.2853 126.88,38.952 122.5,43C 121.167,43.6667 119.833,43.6667 118.5,43C 113.46,37.094 109.294,30.594 106,23.5C 105.275,21.8425 105.775,20.8425 107.5,20.5 Z"/></g>
<g><path style="opacity:1" fill="#c5def1" d="M 465.5,20.5 C 466.497,20.4701 467.164,20.9701 467.5,22C 464.175,29.6541 459.842,36.6541 454.5,43C 453.167,43.6667 451.833,43.6667 450.5,43C 445.602,38.5922 440.602,34.4255 435.5,30.5C 445.094,26.1907 455.094,22.8574 465.5,20.5 Z"/></g>
<g><path style="opacity:1" fill="#dfebf8" d="M 15.5,58.5 C 12.5741,47.6504 14.9075,38.3171 22.5,30.5C 25.8368,29.2609 29.1701,29.2609 32.5,30.5C 33.5836,31.6651 34.4169,32.9984 35,34.5C 33.5075,46.4991 27.0075,54.4991 15.5,58.5 Z"/></g>
<g><path style="opacity:1" fill="#deebf8" d="M 550.5,30.5 C 558.284,38.2963 560.618,47.6296 557.5,58.5C 547.053,54.7152 540.387,47.3819 537.5,36.5C 539.465,29.6726 543.799,27.6726 550.5,30.5 Z"/></g>
<g><path style="opacity:1" fill="#c6dff1" d="M 202.5,78.5 C 191.986,78.8276 181.653,78.4942 171.5,77.5C 167.625,72.2617 167.625,67.095 171.5,62C 177.947,60.1334 182.781,62.3 186,68.5C 190.793,62.9017 196.626,61.4017 203.5,64C 207.459,69.0676 207.126,73.9009 202.5,78.5 Z"/></g>
<g><path style="opacity:1" fill="#c6dff2" d="M 401.5,77.5 C 391.206,78.4271 380.872,78.7604 370.5,78.5C 365.874,73.9009 365.541,69.0676 369.5,64C 376.291,61.6562 382.124,63.1562 387,68.5C 389.953,61.768 394.786,59.6014 401.5,62C 405.254,67.0615 405.254,72.2282 401.5,77.5 Z"/></g>
<g><path style="opacity:1" fill="#a7c7e6" d="M 335.5,114.5 C 335.665,117.518 335.498,120.518 335,123.5C 309.238,143.725 281.404,146.891 251.5,133C 246.631,130.071 241.965,126.904 237.5,123.5C 236.619,111.403 239.119,100.07 245,89.5C 248.466,84.3505 253.299,81.6838 259.5,81.5C 268.775,83.734 277.775,86.734 286.5,90.5C 293.938,87.117 301.605,84.2837 309.5,82C 319.514,81.0951 326.681,85.2618 331,94.5C 333.397,100.962 334.897,107.628 335.5,114.5 Z"/></g>
<g><path style="opacity:1" fill="#ddeaf7" d="M 114.5,82.5 C 121.442,84.0883 128.442,85.4216 135.5,86.5C 133.076,90.2521 129.743,92.9187 125.5,94.5C 120.399,91.7358 116.732,87.7358 114.5,82.5 Z"/></g>
<g><path style="opacity:1" fill="#dbe8f7" d="M 458.5,82.5 C 456.237,87.7641 452.57,91.7641 447.5,94.5C 443.284,92.9516 439.95,90.2849 437.5,86.5C 444.444,84.9112 451.444,83.5779 458.5,82.5 Z"/></g>
<g><path style="opacity:1" fill="#e0ecf9" d="M 59.5,89.5 C 66.1965,89.0056 70.6965,92.0056 73,98.5C 76.8661,91.8779 82.3661,90.0446 89.5,93C 91.4441,94.722 92.4441,96.8887 92.5,99.5C 91.0729,106.439 87.4062,111.939 81.5,116C 78.0061,117.579 74.6728,119.413 71.5,121.5C 61.1235,115.406 55.9568,106.406 56,94.5C 56.9973,92.6769 58.1639,91.0103 59.5,89.5 Z"/></g>
<g><path style="opacity:1" fill="#e0ecf9" d="M 507.5,89.5 C 515.955,89.696 519.122,94.0293 517,102.5C 514.106,110.275 509.273,116.609 502.5,121.5C 491.444,117.777 484.11,110.444 480.5,99.5C 482.728,91.5472 487.728,89.3805 495.5,93C 497.378,94.5429 498.878,96.3762 500,98.5C 501.642,94.6997 504.142,91.6997 507.5,89.5 Z"/></g>
<g><path style="opacity:1" fill="#dfecf9" d="M 208.5,91.5 C 211.167,91.5 213.833,91.5 216.5,91.5C 218.199,91.3398 219.866,91.5065 221.5,92C 218.249,95.7585 214.582,98.9251 210.5,101.5C 206.303,99.9757 202.97,97.309 200.5,93.5C 203.306,92.8324 205.972,92.1657 208.5,91.5 Z"/></g>
<g><path style="opacity:1" fill="#deeaf8" d="M 355.5,91.5 C 361.5,91.5 367.5,91.5 373.5,91.5C 371.134,96.0328 367.634,99.3661 363,101.5C 358.627,99.1405 354.794,95.9738 351.5,92C 352.793,91.51 354.127,91.3433 355.5,91.5 Z"/></g>
<g><path style="opacity:1" fill="#e0ecf9" d="M 271.5,105.5 C 278.077,104.576 283.077,106.909 286.5,112.5C 292.093,104.63 298.593,103.63 306,109.5C 307.845,113.143 307.845,116.809 306,120.5C 301.002,128.735 293.836,133.569 284.5,135C 276.782,131.947 270.948,126.781 267,119.5C 264.606,113.517 266.106,108.851 271.5,105.5 Z"/></g>
<g><path style="opacity:1" fill="#88aee0" d="M 165.5,157.5 C 156.125,154.838 154.125,149.338 159.5,141C 171.035,134.699 183.368,131.032 196.5,130C 192.135,128.479 187.802,126.979 183.5,125.5C 183.586,124.504 183.252,123.671 182.5,123C 178.413,121.458 174.413,119.625 170.5,117.5C 170.709,116.914 171.043,116.414 171.5,116C 188.175,114.246 204.842,114.413 221.5,116.5C 221.411,121.526 221.745,126.526 222.5,131.5C 222.167,132.833 221.833,134.167 221.5,135.5C 209.408,145.212 195.742,151.712 180.5,155C 175.833,155.333 171.167,155.667 166.5,156C 165.944,156.383 165.611,156.883 165.5,157.5 Z"/></g>
<g><path style="opacity:1" fill="#88aee0" d="M 390.5,125.5 C 385.442,126.704 380.442,128.204 375.5,130C 388.961,131.023 401.628,134.69 413.5,141C 417.41,145.739 417.41,150.406 413.5,155C 410.761,156.026 408.428,157.526 406.5,159.5C 406.5,158.167 406.5,156.833 406.5,155.5C 392.5,156.334 379.5,153.168 367.5,146C 361.537,142.363 355.871,138.363 350.5,134C 351.434,128.215 351.768,122.382 351.5,116.5C 368.508,114.012 385.508,114.012 402.5,116.5C 399.652,119.093 396.319,120.926 392.5,122C 391.177,122.816 390.511,123.983 390.5,125.5 Z"/></g>
<g><path style="opacity:1" fill="#88aee0" d="M 335.5,114.5 C 338.134,126.77 334.801,137.27 325.5,146C 313.625,154.103 300.459,158.936 286,160.5C 279.115,159.612 272.448,157.945 266,155.5C 254.619,152.507 245.619,145.84 239,135.5C 237.985,131.56 237.485,127.56 237.5,123.5C 241.965,126.904 246.631,130.071 251.5,133C 281.404,146.891 309.238,143.725 335,123.5C 335.498,120.518 335.665,117.518 335.5,114.5 Z"/></g>
<g><path style="opacity:1" fill="#e0ecf9" d="M 111.5,131.5 C 117.213,131.69 121.88,134.023 125.5,138.5C 129.768,133.531 135.101,131.698 141.5,133C 146.37,137.833 146.537,143 142,148.5C 137.468,153.367 132.634,157.867 127.5,162C 122.533,161.773 118.367,159.606 115,155.5C 109.28,150.4 106.614,144.067 107,136.5C 108.025,134.313 109.525,132.646 111.5,131.5 Z"/></g>
<g><path style="opacity:1" fill="#e0ecf9" d="M 456.5,131.5 C 466.085,131.936 468.918,136.603 465,145.5C 461.673,151.307 457.506,156.474 452.5,161C 450.305,162.373 447.971,162.706 445.5,162C 438.958,157.125 433.458,151.292 429,144.5C 426.508,135.323 430.008,131.489 439.5,133C 442.579,134.248 445.246,136.081 447.5,138.5C 450.257,135.73 453.257,133.396 456.5,131.5 Z"/></g>
<g><path style="opacity:1" fill="#ddeaf8" d="M 24.5,161.5 C 23.2885,152.446 23.2885,143.446 24.5,134.5C 25.4734,134.013 26.4734,133.513 27.5,133C 34.2502,130.766 38.2502,133.099 39.5,140C 37.4902,149.189 32.4902,156.355 24.5,161.5 Z"/></g>
<g><path style="opacity:1" fill="#dce9f8" d="M 548.5,134.5 C 549.815,143.598 549.815,152.598 548.5,161.5C 540.96,156.469 535.96,149.636 533.5,141C 535.428,132.269 540.428,130.102 548.5,134.5 Z"/></g>
<g><path style="opacity:1" fill="#cbe0f2" d="M 239.5,158.5 C 243.083,161.567 247.083,164.067 251.5,166C 247.646,169.089 243.646,171.922 239.5,174.5C 237.262,173.147 235.929,171.147 235.5,168.5C 234.576,164.116 235.909,160.782 239.5,158.5 Z"/></g>
<g><path style="opacity:1" fill="#cae0f2" d="M 333.5,158.5 C 337.091,160.782 338.424,164.116 337.5,168.5C 337.155,171.198 335.822,173.198 333.5,174.5C 329.354,171.922 325.354,169.089 321.5,166C 325.696,163.739 329.696,161.239 333.5,158.5 Z"/></g>
<g><path style="opacity:1" fill="#88afe0" d="M 235.5,168.5 C 235.929,171.147 237.262,173.147 239.5,174.5C 208.479,197.177 174.145,212.51 136.5,220.5C 137.336,212.171 133.67,209.005 125.5,211C 123.023,212.643 120.69,214.476 118.5,216.5C 115.331,211.882 110.998,210.382 105.5,212C 101.844,215.794 101.51,219.961 104.5,224.5C 105.325,225.386 106.325,225.719 107.5,225.5C 91.0216,227.177 74.3549,227.677 57.5,227C 40.2166,224.214 30.5499,214.047 28.5,196.5C 36.1909,199.896 44.1909,202.396 52.5,204C 88.9191,208.654 124.586,205.487 159.5,194.5C 168.168,208.669 177.335,209.335 187,196.5C 189.467,193.266 190.633,189.599 190.5,185.5C 205.174,179.853 219.674,173.52 234,166.5C 234.278,167.416 234.778,168.082 235.5,168.5 Z"/></g>
<g><path style="opacity:1" fill="#88aee0" d="M 209.5,330.5 C 224.585,287.241 240.252,244.241 256.5,201.5C 238.672,209.912 220.672,218.078 202.5,226C 190.307,230.626 177.973,234.459 165.5,237.5C 167.272,233.411 169.105,229.411 171,225.5C 202.468,214.829 231.301,199.662 257.5,180C 259.844,176.815 262.177,173.649 264.5,170.5C 265.667,170.167 266.833,169.833 268,169.5C 270.59,169.945 273.09,170.611 275.5,171.5C 266.967,198.268 259.134,225.268 252,252.5C 245.781,281.933 239.448,311.267 233,340.5C 232.481,341.516 231.647,342.182 230.5,342.5C 223.609,338.224 216.609,334.224 209.5,330.5 Z"/></g>
<g><path style="opacity:1" fill="#88aee0" d="M 406.5,236.5 C 397.418,234.842 388.418,232.675 379.5,230C 358.171,221.329 337.338,211.495 317,200.5C 332.573,243.712 348.073,287.046 363.5,330.5C 356.229,334.472 348.895,338.472 341.5,342.5C 340.808,341.975 340.308,341.308 340,340.5C 328.674,283.194 314.507,226.528 297.5,170.5C 301.154,170.058 304.821,169.724 308.5,169.5C 310.021,174.013 312.688,177.847 316.5,181C 342.953,200.227 371.62,215.227 402.5,226C 404.36,229.251 405.693,232.751 406.5,236.5 Z"/></g>
<g><path style="opacity:1" fill="#e0ecf9" d="M 58.5,174.5 C 63.9483,173.975 68.1149,175.975 71,180.5C 76.2027,175.759 81.5361,175.426 87,179.5C 87.6667,182.167 87.6667,184.833 87,187.5C 81.4267,196.034 73.5933,200.534 63.5,201C 59.1531,197.663 55.9864,193.496 54,188.5C 52.1903,182.519 53.6903,177.852 58.5,174.5 Z"/></g>
<g><path style="opacity:1" fill="#e0ecf9" d="M 508.5,174.5 C 515.759,173.596 519.426,176.763 519.5,184C 518.766,192.56 514.433,198.393 506.5,201.5C 498.7,199.68 492.2,195.68 487,189.5C 483.078,179.766 486.244,175.6 496.5,177C 498.587,177.792 500.421,178.959 502,180.5C 503.914,178.144 506.081,176.144 508.5,174.5 Z"/></g>
<g><path style="opacity:1" fill="#e0ecf9" d="M 189.5,185.5 C 179.773,188.848 169.773,191.848 159.5,194.5C 157.904,191.686 157.404,188.686 158,185.5C 162.514,179.253 167.514,178.92 173,184.5C 179.21,177.621 184.71,177.954 189.5,185.5 Z"/></g>
<g><path style="opacity:1" fill="#dfecf9" d="M 413.5,194.5 C 403.895,191.849 394.229,189.349 384.5,187C 383.944,186.617 383.611,186.117 383.5,185.5C 388.29,177.954 393.79,177.621 400,184.5C 401.214,182.951 402.714,181.785 404.5,181C 414.447,180.584 417.447,185.084 413.5,194.5 Z"/></g>
<g><path style="opacity:1" fill="#c7e0f2" d="M 189.5,185.5 C 189.833,185.5 190.167,185.5 190.5,185.5C 190.633,189.599 189.467,193.266 187,196.5C 177.335,209.335 168.168,208.669 159.5,194.5C 169.773,191.848 179.773,188.848 189.5,185.5 Z"/></g>
<g><path style="opacity:1" fill="#c7e0f2" d="M 382.5,185.5 C 382.833,185.5 383.167,185.5 383.5,185.5C 383.611,186.117 383.944,186.617 384.5,187C 394.229,189.349 403.895,191.849 413.5,194.5C 409.57,200.588 404.07,204.588 397,206.5C 390.887,202.39 386.221,197.057 383,190.5C 382.506,188.866 382.34,187.199 382.5,185.5 Z"/></g>
<g><path style="opacity:1" fill="#88afe0" d="M 382.5,185.5 C 382.34,187.199 382.506,188.866 383,190.5C 386.221,197.057 390.887,202.39 397,206.5C 404.07,204.588 409.57,200.588 413.5,194.5C 438.237,202.178 463.57,206.178 489.5,206.5C 508.358,207.248 526.358,203.914 543.5,196.5C 544.17,194.709 544.837,193.042 545.5,191.5C 541.817,220.136 525.483,232.136 496.5,227.5C 485.962,227.623 475.628,226.957 465.5,225.5C 467.911,225.863 469.411,224.863 470,222.5C 471.833,213.667 468.333,210.167 459.5,212C 457.656,213.182 455.823,214.349 454,215.5C 449.855,211.785 445.022,210.285 439.5,211C 436.814,213.546 435.814,216.713 436.5,220.5C 398.796,212.497 364.463,197.163 333.5,174.5C 335.822,173.198 337.155,171.198 337.5,168.5C 338.15,168.196 338.817,167.863 339.5,167.5C 353.441,174.561 367.774,180.561 382.5,185.5 Z"/></g>
<g><path style="opacity:1" fill="#a7c7e6" d="M 209.5,330.5 C 202.734,327.618 196.067,324.451 189.5,321C 187.419,320.131 185.253,319.631 183,319.5C 166.219,323.151 150.052,328.484 134.5,335.5C 134.167,335 133.833,334.5 133.5,334C 143.479,301.601 154.146,269.434 165.5,237.5C 177.973,234.459 190.307,230.626 202.5,226C 220.672,218.078 238.672,209.912 256.5,201.5C 240.252,244.241 224.585,287.241 209.5,330.5 Z"/></g>
<g><path style="opacity:1" fill="#a7c7e6" d="M 406.5,236.5 C 418.659,268.641 429.659,301.308 439.5,334.5C 423.285,328.819 406.785,323.819 390,319.5C 387.453,319.762 384.953,320.262 382.5,321C 376.423,324.705 370.09,327.872 363.5,330.5C 348.073,287.046 332.573,243.712 317,200.5C 337.338,211.495 358.171,221.329 379.5,230C 388.418,232.675 397.418,234.842 406.5,236.5 Z"/></g>
<g><path style="opacity:1" fill="#c6dff1" d="M 136.5,220.5 C 126.913,222.098 117.246,223.765 107.5,225.5C 106.325,225.719 105.325,225.386 104.5,224.5C 101.51,219.961 101.844,215.794 105.5,212C 110.998,210.382 115.331,211.882 118.5,216.5C 120.69,214.476 123.023,212.643 125.5,211C 133.67,209.005 137.336,212.171 136.5,220.5 Z"/></g>
<g><path style="opacity:1" fill="#c6def1" d="M 465.5,225.5 C 455.714,224.37 446.047,222.703 436.5,220.5C 435.814,216.713 436.814,213.546 439.5,211C 445.022,210.285 449.855,211.785 454,215.5C 455.823,214.349 457.656,213.182 459.5,212C 468.333,210.167 471.833,213.667 470,222.5C 469.411,224.863 467.911,225.863 465.5,225.5 Z"/></g>
<g><path style="opacity:1" fill="#e0ecf9" d="M 192.5,234.5 C 197.456,234.619 200.956,236.952 203,241.5C 206.856,236.47 211.689,235.303 217.5,238C 220.675,241.874 221.175,246.041 219,250.5C 213.724,256.813 207.224,260.979 199.5,263C 193.141,258.979 188.641,253.479 186,246.5C 184.798,240.565 186.965,236.565 192.5,234.5 Z"/></g>
<g><path style="opacity:1" fill="#e0ecf9" d="M 375.5,235.5 C 382.49,233.838 386.49,236.505 387.5,243.5C 385.55,252.621 380.383,259.288 372,263.5C 362.505,260.335 356.005,254.169 352.5,245C 353.573,237.926 357.573,235.259 364.5,237C 367.057,237.685 368.891,239.185 370,241.5C 371.36,238.977 373.193,236.977 375.5,235.5 Z"/></g>
<g><path style="opacity:1" fill="#e0ecf9" d="M 178.5,283.5 C 184.961,281.818 189.128,284.151 191,290.5C 194.795,287.197 198.962,286.697 203.5,289C 208.052,295.248 207.052,300.581 200.5,305C 195.642,308.442 190.309,310.108 184.5,310C 178.164,304.167 174.997,297 175,288.5C 175.997,286.677 177.164,285.01 178.5,283.5 Z"/></g>
<g><path style="opacity:1" fill="#e0ecf9" d="M 386.5,283.5 C 393.49,281.838 397.49,284.505 398.5,291.5C 397.127,298.747 393.794,304.914 388.5,310C 380.377,309.689 373.544,306.523 368,300.5C 365.273,291.125 368.773,286.958 378.5,288C 379.931,288.465 381.097,289.299 382,290.5C 383.012,287.798 384.512,285.465 386.5,283.5 Z"/></g>
</svg>
